# MagicaVoxel @ Ephtracy

# group
o piso 1 png

# material
mtllib escalon3.mtl
usemtl palette

# normals
vn -1 0 0
vn 1 0 0
vn 0 0 1
vn 0 0 -1
vn 0 -1 0
vn 0 1 0

# texcoords
vt 0.00585938 0.5
vt 0.349609 0.5
vt 0.486328 0.5

# verts
v -5.7 3.3 -5.5
v -5.7 3.3 -6.6
v -5.7 3.4 -5.5
v -5.7 3.4 -6.6
v -5.6 3.3 -5.4
v -5.6 3.3 -5.5
v -5.6 3.3 -6.6
v -5.6 3.3 -6.7
v -5.6 3.4 -5.4
v -5.6 3.4 -5.5
v -5.6 3.4 -5.6
v -5.6 3.4 -6.6
v -5.6 3.4 -6.7
v -5.6 3.5 -5.6
v -5.6 3.5 -6.6
v -5.5 3.3 -6.7
v -5.5 3.3 -6.8
v -5.5 3.4 -5.5
v -5.5 3.4 -5.6
v -5.5 3.4 -6.6
v -5.5 3.4 -6.7
v -5.5 3.4 -6.8
v -5.5 3.5 -5.5
v -5.5 3.5 -5.6
v -5.5 3.5 -5.7
v -5.5 3.5 -6.5
v -5.5 3.5 -6.6
v -5.5 3.5 -6.7
v -5.5 3.6 -5.7
v -5.5 3.6 -6.5
v -5.4 3.5 -6.5
v -5.4 3.5 -6.6
v -5.4 3.6 -5.8
v -5.4 3.6 -6.5
v -5.4 3.6 -6.6
v -5.4 3.7 -5.8
v -5.4 3.7 -6.5
v -5.3 3.5 -5.6
v -5.3 3.5 -5.7
v -5.3 3.6 -5.6
v -5.3 3.6 -5.7
v -5.3 3.6 -5.8
v -5.3 3.7 -5.7
v -5.3 3.7 -5.8
v -2.2 3.5 -5.6
v -2.2 3.5 -5.7
v -2.2 3.5 -6.5
v -2.2 3.5 -6.6
v -2.2 3.6 -5.6
v -2.2 3.6 -5.7
v -2.2 3.6 -5.8
v -2.2 3.6 -6.5
v -2.2 3.6 -6.6
v -2.2 3.7 -5.7
v -2.2 3.7 -5.8
v -2.2 3.7 -6.5
v -2.1 3.3 -6.7
v -2.1 3.3 -6.8
v -2.1 3.4 -6.5
v -2.1 3.4 -6.7
v -2.1 3.4 -6.8
v -2.1 3.5 -5.7
v -2.1 3.5 -5.8
v -2.1 3.5 -6.5
v -2.1 3.5 -6.7
v -2.1 3.6 -5.7
v -2.1 3.6 -5.8
v -2.1 3.6 -6.5
v -2 3.3 -5.4
v -2 3.3 -5.5
v -2 3.3 -6.6
v -2 3.3 -6.7
v -2 3.4 -5.4
v -2 3.4 -5.5
v -2 3.4 -5.8
v -2 3.4 -6.5
v -2 3.4 -6.6
v -2 3.4 -6.7
v -2 3.5 -5.5
v -2 3.5 -5.8
v -2 3.5 -6.5
v -1.9 3.3 -5.5
v -1.9 3.3 -6.6
v -1.9 3.4 -5.5
v -1.9 3.4 -6.6
v -5.6 3.3 -5.4
v -5.6 3.4 -5.4
v -2 3.3 -5.4
v -2 3.4 -5.4
v -5.7 3.3 -5.5
v -5.7 3.4 -5.5
v -5.6 3.3 -5.5
v -5.6 3.4 -5.5
v -5.5 3.4 -5.5
v -5.5 3.5 -5.5
v -2 3.3 -5.5
v -2 3.4 -5.5
v -2 3.5 -5.5
v -1.9 3.3 -5.5
v -1.9 3.4 -5.5
v -5.6 3.4 -5.6
v -5.6 3.5 -5.6
v -5.5 3.4 -5.6
v -5.5 3.5 -5.6
v -5.3 3.5 -5.6
v -5.3 3.6 -5.6
v -2.2 3.5 -5.6
v -2.2 3.6 -5.6
v -5.5 3.5 -5.7
v -5.5 3.6 -5.7
v -5.3 3.5 -5.7
v -5.3 3.6 -5.7
v -5.3 3.7 -5.7
v -2.2 3.5 -5.7
v -2.2 3.6 -5.7
v -2.2 3.7 -5.7
v -2.1 3.5 -5.7
v -2.1 3.6 -5.7
v -5.4 3.6 -5.8
v -5.4 3.7 -5.8
v -5.3 3.6 -5.8
v -5.3 3.7 -5.8
v -5.5 3.5 -6.5
v -5.5 3.6 -6.5
v -5.4 3.5 -6.5
v -5.4 3.6 -6.5
v -5.4 3.7 -6.5
v -2.2 3.5 -6.5
v -2.2 3.6 -6.5
v -2.2 3.7 -6.5
v -2.1 3.4 -6.5
v -2.1 3.5 -6.5
v -2.1 3.6 -6.5
v -2 3.4 -6.5
v -2 3.5 -6.5
v -5.7 3.3 -6.6
v -5.7 3.4 -6.6
v -5.6 3.3 -6.6
v -5.6 3.4 -6.6
v -5.6 3.5 -6.6
v -5.5 3.4 -6.6
v -5.5 3.5 -6.6
v -5.4 3.5 -6.6
v -5.4 3.6 -6.6
v -2.2 3.5 -6.6
v -2.2 3.6 -6.6
v -2 3.3 -6.6
v -2 3.4 -6.6
v -1.9 3.3 -6.6
v -1.9 3.4 -6.6
v -5.6 3.3 -6.7
v -5.6 3.4 -6.7
v -5.5 3.3 -6.7
v -5.5 3.4 -6.7
v -5.5 3.5 -6.7
v -2.1 3.3 -6.7
v -2.1 3.4 -6.7
v -2.1 3.5 -6.7
v -2 3.3 -6.7
v -2 3.4 -6.7
v -5.5 3.3 -6.8
v -5.5 3.4 -6.8
v -2.1 3.3 -6.8
v -2.1 3.4 -6.8
v -5.6 3.3 -5.4
v -2 3.3 -5.4
v -5.7 3.3 -5.5
v -5.6 3.3 -5.5
v -2 3.3 -5.5
v -1.9 3.3 -5.5
v -5.3 3.3 -5.7
v -2.2 3.3 -5.7
v -5.4 3.3 -5.8
v -5.3 3.3 -5.8
v -2.2 3.3 -5.8
v -5.5 3.3 -5.9
v -5.4 3.3 -5.9
v -2.2 3.3 -5.9
v -2 3.3 -5.9
v -5.5 3.3 -6.3
v -5.4 3.3 -6.3
v -2.1 3.3 -6.5
v -2 3.3 -6.5
v -5.7 3.3 -6.6
v -5.6 3.3 -6.6
v -5.4 3.3 -6.6
v -2.1 3.3 -6.6
v -2 3.3 -6.6
v -1.9 3.3 -6.6
v -5.6 3.3 -6.7
v -5.5 3.3 -6.7
v -2.1 3.3 -6.7
v -2 3.3 -6.7
v -5.5 3.3 -6.8
v -2.1 3.3 -6.8
v -5.6 3.4 -5.4
v -2 3.4 -5.4
v -5.7 3.4 -5.5
v -5.6 3.4 -5.5
v -5.5 3.4 -5.5
v -2 3.4 -5.5
v -1.9 3.4 -5.5
v -5.6 3.4 -5.6
v -5.5 3.4 -5.6
v -2 3.4 -5.8
v -2.1 3.4 -6.5
v -2 3.4 -6.5
v -5.7 3.4 -6.6
v -5.6 3.4 -6.6
v -5.5 3.4 -6.6
v -2 3.4 -6.6
v -1.9 3.4 -6.6
v -5.6 3.4 -6.7
v -5.5 3.4 -6.7
v -2.1 3.4 -6.7
v -2 3.4 -6.7
v -5.5 3.4 -6.8
v -2.1 3.4 -6.8
v -5.5 3.5 -5.5
v -2 3.5 -5.5
v -5.6 3.5 -5.6
v -5.5 3.5 -5.6
v -5.3 3.5 -5.6
v -2.2 3.5 -5.6
v -5.5 3.5 -5.7
v -5.3 3.5 -5.7
v -2.2 3.5 -5.7
v -2.1 3.5 -5.7
v -2.1 3.5 -5.8
v -2 3.5 -5.8
v -5.5 3.5 -6.5
v -5.4 3.5 -6.5
v -2.2 3.5 -6.5
v -2.1 3.5 -6.5
v -2 3.5 -6.5
v -5.6 3.5 -6.6
v -5.5 3.5 -6.6
v -5.4 3.5 -6.6
v -2.2 3.5 -6.6
v -5.5 3.5 -6.7
v -2.1 3.5 -6.7
v -5.3 3.6 -5.6
v -2.2 3.6 -5.6
v -5.5 3.6 -5.7
v -5.3 3.6 -5.7
v -2.2 3.6 -5.7
v -2.1 3.6 -5.7
v -5.4 3.6 -5.8
v -5.3 3.6 -5.8
v -2.2 3.6 -5.8
v -2.1 3.6 -5.8
v -5.5 3.6 -6.5
v -5.4 3.6 -6.5
v -2.2 3.6 -6.5
v -2.1 3.6 -6.5
v -5.4 3.6 -6.6
v -2.2 3.6 -6.6
v -5.3 3.7 -5.7
v -2.2 3.7 -5.7
v -5.4 3.7 -5.8
v -5.3 3.7 -5.8
v -2.2 3.7 -5.8
v -5.4 3.7 -6.5
v -2.2 3.7 -6.5

# faces
f 3/2/1 2/2/1 1/2/1
f 4/2/1 2/2/1 3/2/1
f 9/2/1 6/2/1 5/2/1
f 10/2/1 6/2/1 9/2/1
f 12/2/1 8/2/1 7/2/1
f 13/2/1 8/2/1 12/2/1
f 14/3/1 12/3/1 11/3/1
f 15/3/1 12/3/1 14/3/1
f 21/2/1 17/2/1 16/2/1
f 22/2/1 17/2/1 21/2/1
f 23/1/1 19/1/1 18/1/1
f 24/1/1 19/1/1 23/1/1
f 27/3/1 21/3/1 20/3/1
f 28/3/1 21/3/1 27/3/1
f 29/3/1 26/3/1 25/3/1
f 30/3/1 26/3/1 29/3/1
f 34/3/1 32/3/1 31/3/1
f 35/3/1 32/3/1 34/3/1
f 36/3/1 34/3/1 33/3/1
f 37/3/1 34/3/1 36/3/1
f 40/1/1 39/1/1 38/1/1
f 41/1/1 39/1/1 40/1/1
f 43/1/1 42/1/1 41/1/1
f 44/1/1 42/1/1 43/1/1
f 45/1/2 46/1/2 49/1/2
f 49/1/2 46/1/2 50/1/2
f 47/3/2 48/3/2 52/3/2
f 52/3/2 48/3/2 53/3/2
f 50/1/2 51/1/2 54/1/2
f 51/3/2 52/3/2 55/3/2
f 54/1/2 51/1/2 55/1/2
f 55/3/2 52/3/2 56/3/2
f 57/2/2 58/2/2 60/2/2
f 60/2/2 58/2/2 61/2/2
f 59/3/2 60/3/2 64/3/2
f 64/3/2 60/3/2 65/3/2
f 62/1/2 63/1/2 66/1/2
f 63/3/2 64/3/2 67/3/2
f 66/1/2 63/1/2 67/1/2
f 67/3/2 64/3/2 68/3/2
f 69/2/2 70/2/2 73/2/2
f 73/2/2 70/2/2 74/2/2
f 71/2/2 72/2/2 77/2/2
f 77/2/2 72/2/2 78/2/2
f 74/1/2 75/1/2 79/1/2
f 75/3/2 76/3/2 80/3/2
f 79/1/2 75/1/2 80/1/2
f 80/3/2 76/3/2 81/3/2
f 82/2/2 83/2/2 84/2/2
f 84/2/2 83/2/2 85/2/2
f 88/2/3 87/2/3 86/2/3
f 89/2/3 87/2/3 88/2/3
f 92/2/3 91/2/3 90/2/3
f 93/2/3 91/2/3 92/2/3
f 97/1/3 95/1/3 94/1/3
f 98/1/3 95/1/3 97/1/3
f 99/2/3 97/2/3 96/2/3
f 100/2/3 97/2/3 99/2/3
f 103/3/3 102/3/3 101/3/3
f 104/3/3 102/3/3 103/3/3
f 107/1/3 106/1/3 105/1/3
f 108/1/3 106/1/3 107/1/3
f 111/3/3 110/3/3 109/3/3
f 112/3/3 110/3/3 111/3/3
f 115/1/3 113/1/3 112/1/3
f 116/1/3 113/1/3 115/1/3
f 117/1/3 115/1/3 114/1/3
f 118/1/3 115/1/3 117/1/3
f 121/3/3 120/3/3 119/3/3
f 122/3/3 120/3/3 121/3/3
f 123/3/4 124/3/4 125/3/4
f 125/3/4 124/3/4 126/3/4
f 126/3/4 127/3/4 129/3/4
f 129/3/4 127/3/4 130/3/4
f 128/3/4 129/3/4 132/3/4
f 132/3/4 129/3/4 133/3/4
f 131/3/4 132/3/4 134/3/4
f 134/3/4 132/3/4 135/3/4
f 136/2/4 137/2/4 138/2/4
f 138/2/4 137/2/4 139/2/4
f 139/3/4 140/3/4 141/3/4
f 141/3/4 140/3/4 142/3/4
f 143/3/4 144/3/4 145/3/4
f 145/3/4 144/3/4 146/3/4
f 147/2/4 148/2/4 149/2/4
f 149/2/4 148/2/4 150/2/4
f 151/2/4 152/2/4 153/2/4
f 153/2/4 152/2/4 154/2/4
f 154/3/4 155/3/4 157/3/4
f 157/3/4 155/3/4 158/3/4
f 156/2/4 157/2/4 159/2/4
f 159/2/4 157/2/4 160/2/4
f 161/2/4 162/2/4 163/2/4
f 163/2/4 162/2/4 164/2/4
f 168/2/5 166/2/5 165/2/5
f 169/2/5 166/2/5 168/2/5
f 171/2/5 168/2/5 167/2/5
f 171/2/5 170/2/5 169/2/5
f 171/2/5 169/2/5 168/2/5
f 172/2/5 170/2/5 171/2/5
f 173/2/5 171/2/5 167/2/5
f 174/1/5 172/1/5 171/1/5
f 174/2/5 171/2/5 173/2/5
f 175/2/5 170/2/5 172/2/5
f 175/1/5 172/1/5 174/1/5
f 176/2/5 173/2/5 167/2/5
f 177/3/5 174/3/5 173/3/5
f 177/2/5 173/2/5 176/2/5
f 177/3/5 175/3/5 174/3/5
f 178/2/5 170/2/5 175/2/5
f 178/3/5 175/3/5 177/3/5
f 179/2/5 170/2/5 178/2/5
f 180/2/5 176/2/5 167/2/5
f 180/3/5 177/3/5 176/3/5
f 180/3/5 179/3/5 178/3/5
f 180/3/5 178/3/5 177/3/5
f 181/3/5 179/3/5 180/3/5
f 182/3/5 179/3/5 181/3/5
f 183/2/5 170/2/5 179/2/5
f 183/3/5 179/3/5 182/3/5
f 184/2/5 180/2/5 167/2/5
f 184/2/5 181/2/5 180/2/5
f 185/2/5 181/2/5 184/2/5
f 186/3/5 182/3/5 181/3/5
f 186/2/5 181/2/5 185/2/5
f 187/2/5 183/2/5 182/2/5
f 187/3/5 182/3/5 186/3/5
f 188/2/5 170/2/5 183/2/5
f 188/2/5 183/2/5 187/2/5
f 189/2/5 170/2/5 188/2/5
f 190/2/5 187/2/5 186/2/5
f 190/2/5 188/2/5 187/2/5
f 190/2/5 186/2/5 185/2/5
f 191/2/5 188/2/5 190/2/5
f 192/2/5 188/2/5 191/2/5
f 193/2/5 188/2/5 192/2/5
f 194/2/5 192/2/5 191/2/5
f 195/2/5 192/2/5 194/2/5
f 196/2/6 197/2/6 199/2/6
f 199/2/6 197/2/6 200/2/6
f 200/2/6 197/2/6 201/2/6
f 198/2/6 199/2/6 203/2/6
f 199/2/6 200/2/6 203/2/6
f 203/2/6 200/2/6 204/2/6
f 201/2/6 202/2/6 205/2/6
f 205/2/6 202/2/6 207/2/6
f 198/2/6 203/2/6 208/2/6
f 208/2/6 203/2/6 209/2/6
f 206/2/6 207/2/6 211/2/6
f 207/2/6 202/2/6 211/2/6
f 211/2/6 202/2/6 212/2/6
f 209/2/6 210/2/6 213/2/6
f 213/2/6 210/2/6 214/2/6
f 206/2/6 211/2/6 215/2/6
f 215/2/6 211/2/6 216/2/6
f 214/2/6 215/2/6 217/2/6
f 217/2/6 215/2/6 218/2/6
f 219/1/6 220/1/6 222/1/6
f 222/1/6 220/1/6 223/1/6
f 223/1/6 220/1/6 224/1/6
f 221/3/6 222/3/6 225/3/6
f 222/3/6 223/3/6 225/3/6
f 225/3/6 223/3/6 226/3/6
f 224/1/6 220/1/6 227/1/6
f 227/1/6 220/1/6 228/1/6
f 228/1/6 220/1/6 229/1/6
f 229/1/6 220/1/6 230/1/6
f 221/3/6 225/3/6 231/3/6
f 229/3/6 230/3/6 234/3/6
f 234/3/6 230/3/6 235/3/6
f 231/3/6 232/3/6 236/3/6
f 221/3/6 231/3/6 236/3/6
f 236/3/6 232/3/6 237/3/6
f 237/3/6 232/3/6 238/3/6
f 233/3/6 234/3/6 239/3/6
f 237/3/6 238/3/6 240/3/6
f 238/3/6 239/3/6 240/3/6
f 239/3/6 234/3/6 241/3/6
f 240/3/6 239/3/6 241/3/6
f 242/1/6 243/1/6 245/1/6
f 245/1/6 243/1/6 246/1/6
f 244/3/6 245/3/6 248/3/6
f 248/3/6 245/3/6 249/3/6
f 246/1/6 247/1/6 250/1/6
f 250/1/6 247/1/6 251/1/6
f 244/3/6 248/3/6 252/3/6
f 252/3/6 248/3/6 253/3/6
f 250/3/6 251/3/6 254/3/6
f 254/3/6 251/3/6 255/3/6
f 253/3/6 254/3/6 256/3/6
f 256/3/6 254/3/6 257/3/6
f 258/1/6 259/1/6 261/1/6
f 261/1/6 259/1/6 262/1/6
f 260/3/6 261/3/6 263/3/6
f 261/3/6 262/3/6 263/3/6
f 263/3/6 262/3/6 264/3/6
