# MagicaVoxel @ Ephtracy

# group
o piso 1 png

# material
mtllib escalon.mtl
usemtl palette

# normals
vn -1 0 0
vn 1 0 0
vn 0 0 1
vn 0 0 -1
vn 0 -1 0
vn 0 1 0

# texcoords
vt 0.00585938 0.5
vt 0.349609 0.5
vt 0.486328 0.5
vt 0.966797 0.5
vt 0.970703 0.5

# verts
v -5.7 0 -0.4
v -5.7 0 -1.7
v -5.7 0.1 -0.4
v -5.7 0.1 -1.7
v -5.6 0.1 -0.6
v -5.6 0.1 -1.4
v -5.6 0.2 -0.6
v -5.6 0.2 -1.4
v -5.5 0.1 -0.5
v -5.5 0.1 -0.6
v -5.5 0.1 -1.4
v -5.5 0.1 -1.5
v -5.5 0.2 -0.5
v -5.5 0.2 -0.6
v -5.5 0.2 -1.4
v -5.5 0.2 -1.5
v -5.5 0.3 -0.6
v -5.5 0.3 -1.4
v -5.4 0.1 -1.5
v -5.4 0.1 -1.6
v -5.4 0.2 -1.4
v -5.4 0.2 -1.5
v -5.4 0.2 -1.6
v -5.4 0.3 -1.4
v -5.4 0.3 -1.5
v -5.3 0.3 -0.7
v -5.3 0.3 -1.3
v -5.3 0.4 -0.7
v -5.3 0.4 -1.3
v -0.4 0.3 -0.7
v -0.4 0.3 -1.3
v -0.4 0.4 -0.7
v -0.4 0.4 -1.3
v -0.3 0.2 -0.6
v -0.3 0.2 -1.5
v -0.3 0.3 -0.6
v -0.3 0.3 -1.5
v -0.2 0.1 -0.5
v -0.2 0.1 -1.6
v -0.2 0.2 -0.5
v -0.2 0.2 -1.6
v -0.0999999 0 -0.4
v -0.0999999 0 -1.7
v -0.0999999 0.1 -0.4
v -0.0999999 0.1 -1.7
v -5.7 0 -0.4
v -5.7 0.1 -0.4
v -0.0999999 0 -0.4
v -0.0999999 0.1 -0.4
v -5.5 0.1 -0.5
v -5.5 0.2 -0.5
v -5.4 0.1 -0.5
v -5.4 0.2 -0.5
v -0.3 0.1 -0.5
v -0.3 0.2 -0.5
v -0.2 0.1 -0.5
v -0.2 0.2 -0.5
v -5.6 0.1 -0.6
v -5.6 0.2 -0.6
v -5.5 0.1 -0.6
v -5.5 0.2 -0.6
v -5.5 0.3 -0.6
v -5.4 0.2 -0.6
v -0.3 0.2 -0.6
v -0.3 0.3 -0.6
v -5.3 0.3 -0.7
v -5.3 0.4 -0.7
v -0.4 0.3 -0.7
v -0.4 0.4 -0.7
v -5.3 0.3 -1.3
v -5.3 0.4 -1.3
v -0.4 0.3 -1.3
v -0.4 0.4 -1.3
v -5.6 0.1 -1.4
v -5.6 0.2 -1.4
v -5.5 0.1 -1.4
v -5.5 0.2 -1.4
v -5.5 0.3 -1.4
v -5.4 0.2 -1.4
v -5.4 0.3 -1.4
v -5.5 0.1 -1.5
v -5.5 0.2 -1.5
v -5.4 0.1 -1.5
v -5.4 0.2 -1.5
v -5.4 0.3 -1.5
v -0.3 0.2 -1.5
v -0.3 0.3 -1.5
v -5.4 0.1 -1.6
v -5.4 0.2 -1.6
v -0.2 0.1 -1.6
v -0.2 0.2 -1.6
v -5.7 0 -1.7
v -5.7 0.1 -1.7
v -0.0999999 0 -1.7
v -0.0999999 0.1 -1.7
v -5.7 0 -0.4
v -0.0999999 0 -0.4
v -5.4 0 -0.5
v -0.5 0 -0.5
v -0.4 0 -0.5
v -0.3 0 -0.5
v -5.5 0 -0.6
v -5.4 0 -0.6
v -0.5 0 -0.6
v -0.4 0 -0.6
v -0.3 0 -0.6
v -5.3 0 -0.7
v -0.4 0 -0.7
v -5.3 0 -1.3
v -0.4 0 -1.3
v -5.5 0 -1.4
v -5.4 0 -1.4
v -5.4 0 -1.5
v -0.3 0 -1.5
v -5.7 0 -1.7
v -0.0999999 0 -1.7
v -5.7 0.1 -0.4
v -0.0999999 0.1 -0.4
v -5.5 0.1 -0.5
v -5.4 0.1 -0.5
v -0.3 0.1 -0.5
v -0.2 0.1 -0.5
v -5.6 0.1 -0.6
v -5.5 0.1 -0.6
v -5.6 0.1 -1.4
v -5.5 0.1 -1.4
v -5.5 0.1 -1.5
v -5.4 0.1 -1.5
v -5.4 0.1 -1.6
v -0.2 0.1 -1.6
v -5.7 0.1 -1.7
v -0.0999999 0.1 -1.7
v -5.5 0.2 -0.5
v -5.4 0.2 -0.5
v -0.3 0.2 -0.5
v -0.2 0.2 -0.5
v -5.6 0.2 -0.6
v -5.5 0.2 -0.6
v -5.4 0.2 -0.6
v -0.3 0.2 -0.6
v -5.6 0.2 -1.4
v -5.5 0.2 -1.4
v -5.4 0.2 -1.4
v -5.5 0.2 -1.5
v -5.4 0.2 -1.5
v -0.3 0.2 -1.5
v -5.4 0.2 -1.6
v -0.2 0.2 -1.6
v -5.5 0.3 -0.6
v -0.3 0.3 -0.6
v -5.3 0.3 -0.7
v -0.4 0.3 -0.7
v -5.3 0.3 -1.3
v -0.4 0.3 -1.3
v -5.5 0.3 -1.4
v -5.4 0.3 -1.4
v -5.4 0.3 -1.5
v -0.3 0.3 -1.5
v -5.3 0.4 -0.7
v -0.4 0.4 -0.7
v -5.3 0.4 -1.3
v -0.4 0.4 -1.3

# faces
f 3/2/1 2/2/1 1/2/1
f 4/2/1 2/2/1 3/2/1
f 7/2/1 6/2/1 5/2/1
f 8/2/1 6/2/1 7/2/1
f 13/2/1 10/2/1 9/2/1
f 14/2/1 10/2/1 13/2/1
f 15/2/1 12/2/1 11/2/1
f 16/2/1 12/2/1 15/2/1
f 17/3/1 15/3/1 14/3/1
f 18/3/1 15/3/1 17/3/1
f 22/2/1 20/2/1 19/2/1
f 23/2/1 20/2/1 22/2/1
f 24/3/1 22/3/1 21/3/1
f 25/3/1 22/3/1 24/3/1
f 28/2/1 27/2/1 26/2/1
f 29/2/1 27/2/1 28/2/1
f 30/2/2 31/2/2 32/2/2
f 32/2/2 31/2/2 33/2/2
f 34/3/2 35/3/2 36/3/2
f 36/3/2 35/3/2 37/3/2
f 38/2/2 39/2/2 40/2/2
f 40/2/2 39/2/2 41/2/2
f 42/2/2 43/2/2 44/2/2
f 44/2/2 43/2/2 45/2/2
f 48/2/3 47/2/3 46/2/3
f 49/2/3 47/2/3 48/2/3
f 52/2/3 51/2/3 50/2/3
f 53/2/3 51/2/3 52/2/3
f 54/1/3 53/1/3 52/1/3
f 55/1/3 53/1/3 54/1/3
f 56/2/3 55/2/3 54/2/3
f 57/2/3 55/2/3 56/2/3
f 60/2/3 59/2/3 58/2/3
f 61/2/3 59/2/3 60/2/3
f 63/3/3 62/3/3 61/3/3
f 64/3/3 62/3/3 63/3/3
f 65/3/3 62/3/3 64/3/3
f 68/2/3 67/2/3 66/2/3
f 69/2/3 67/2/3 68/2/3
f 70/2/4 71/2/4 72/2/4
f 72/2/4 71/2/4 73/2/4
f 74/2/4 75/2/4 76/2/4
f 76/2/4 75/2/4 77/2/4
f 77/3/4 78/3/4 79/3/4
f 79/3/4 78/3/4 80/3/4
f 81/2/4 82/2/4 83/2/4
f 83/2/4 82/2/4 84/2/4
f 84/3/4 85/3/4 86/3/4
f 86/3/4 85/3/4 87/3/4
f 88/2/4 89/2/4 90/2/4
f 90/2/4 89/2/4 91/2/4
f 92/2/4 93/2/4 94/2/4
f 94/2/4 93/2/4 95/2/4
f 98/2/5 97/2/5 96/2/5
f 99/2/5 97/2/5 98/2/5
f 100/2/5 97/2/5 99/2/5
f 101/2/5 97/2/5 100/2/5
f 102/2/5 98/2/5 96/2/5
f 103/1/5 99/1/5 98/1/5
f 103/2/5 98/2/5 102/2/5
f 104/4/5 100/4/5 99/4/5
f 104/1/5 99/1/5 103/1/5
f 105/5/5 101/5/5 100/5/5
f 105/4/5 100/4/5 104/4/5
f 106/2/5 97/2/5 101/2/5
f 106/5/5 101/5/5 105/5/5
f 107/3/5 105/3/5 104/3/5
f 107/3/5 103/3/5 102/3/5
f 107/3/5 106/3/5 105/3/5
f 107/3/5 104/3/5 103/3/5
f 108/3/5 106/3/5 107/3/5
f 109/3/5 107/3/5 102/3/5
f 109/2/5 108/2/5 107/2/5
f 110/3/5 106/3/5 108/3/5
f 110/2/5 108/2/5 109/2/5
f 111/2/5 102/2/5 96/2/5
f 111/3/5 109/3/5 102/3/5
f 111/3/5 110/3/5 109/3/5
f 112/3/5 110/3/5 111/3/5
f 113/2/5 112/2/5 111/2/5
f 113/3/5 110/3/5 112/3/5
f 114/2/5 97/2/5 106/2/5
f 114/3/5 110/3/5 113/3/5
f 114/3/5 106/3/5 110/3/5
f 115/2/5 113/2/5 111/2/5
f 115/2/5 111/2/5 96/2/5
f 115/2/5 114/2/5 113/2/5
f 116/2/5 97/2/5 114/2/5
f 116/2/5 114/2/5 115/2/5
f 117/2/6 118/2/6 119/2/6
f 119/2/6 118/2/6 120/2/6
f 120/2/6 118/2/6 121/2/6
f 121/2/6 118/2/6 122/2/6
f 117/2/6 119/2/6 123/2/6
f 123/2/6 119/2/6 124/2/6
f 117/2/6 123/2/6 125/2/6
f 125/2/6 126/2/6 127/2/6
f 127/2/6 128/2/6 129/2/6
f 122/2/6 118/2/6 130/2/6
f 127/2/6 129/2/6 131/2/6
f 129/2/6 130/2/6 131/2/6
f 125/2/6 127/2/6 131/2/6
f 117/2/6 125/2/6 131/2/6
f 130/2/6 118/2/6 132/2/6
f 131/2/6 130/2/6 132/2/6
f 133/2/6 134/2/6 138/2/6
f 134/1/6 135/1/6 139/1/6
f 138/2/6 134/2/6 139/2/6
f 135/2/6 136/2/6 140/2/6
f 139/1/6 135/1/6 140/1/6
f 137/2/6 138/2/6 141/2/6
f 141/2/6 138/2/6 142/2/6
f 142/2/6 143/2/6 144/2/6
f 144/2/6 143/2/6 145/2/6
f 140/2/6 136/2/6 146/2/6
f 145/2/6 146/2/6 147/2/6
f 146/2/6 136/2/6 148/2/6
f 147/2/6 146/2/6 148/2/6
f 149/3/6 150/3/6 151/3/6
f 151/3/6 150/3/6 152/3/6
f 149/3/6 151/3/6 153/3/6
f 152/3/6 150/3/6 154/3/6
f 149/3/6 153/3/6 155/3/6
f 153/3/6 154/3/6 155/3/6
f 155/3/6 154/3/6 156/3/6
f 156/3/6 154/3/6 157/3/6
f 154/3/6 150/3/6 158/3/6
f 157/3/6 154/3/6 158/3/6
f 159/2/6 160/2/6 161/2/6
f 161/2/6 160/2/6 162/2/6
