# MagicaVoxel @ Ephtracy

# group
o 

# material
mtllib valla frente granero.mtl
usemtl palette

# normals
vn -1 0 0
vn 1 0 0
vn 0 0 1
vn 0 0 -1
vn 0 -1 0
vn 0 1 0

# texcoords
vt 0.537109 0.5
vt 0.560547 0.5

# verts
v -1.3 -1.3 2.2
v -1.3 -1.3 1.9
v -1.3 -1.1 2.2
v -1.3 -1.1 1.9
v -1.2 -2 2.2
v -1.2 -2 1.9
v -1.2 -1.3 2.2
v -1.2 -1.3 1.9
v -1.2 -1.1 2.2
v -1.2 -1.1 1.9
v -1.2 -0.4 2.2
v -1.2 -0.4 1.9
v 0.4 -1.9 2.1
v 0.4 -1.9 2
v 0.4 -1.8 2.1
v 0.4 -1.8 2
v 0.4 -0.6 2.1
v 0.4 -0.6 2
v 0.4 -0.5 2.1
v 0.4 -0.5 2
v 0.5 -2 2.2
v 0.5 -2 1.9
v 0.5 -1.9 2.1
v 0.5 -1.9 2
v 0.5 -1.8 2.1
v 0.5 -1.8 2
v 0.5 -1.7 2.1
v 0.5 -1.7 2
v 0.5 -1.6 2.1
v 0.5 -1.6 2
v 0.5 -1.5 2.1
v 0.5 -1.5 2
v 0.5 -1.3 2.1
v 0.5 -1.3 2
v 0.5 -1.2 2.1
v 0.5 -1.2 2
v 0.5 -1 2.1
v 0.5 -1 2
v 0.5 -0.9 2.1
v 0.5 -0.9 2
v 0.5 -0.7 2.1
v 0.5 -0.7 2
v 0.5 -0.6 2.1
v 0.5 -0.6 2
v 0.5 -0.5 2.1
v 0.5 -0.5 2
v 0.5 -0.4 2.2
v 0.5 -0.4 1.9
v -0.9 -2 2.2
v -0.9 -2 1.9
v -0.9 -1.9 2.1
v -0.9 -1.9 2
v -0.9 -1.8 2.1
v -0.9 -1.8 2
v -0.9 -1.7 2.1
v -0.9 -1.7 2
v -0.9 -1.6 2.1
v -0.9 -1.6 2
v -0.9 -1.5 2.1
v -0.9 -1.5 2
v -0.9 -1.3 2.1
v -0.9 -1.3 2
v -0.9 -1.2 2.1
v -0.9 -1.2 2
v -0.9 -1 2.1
v -0.9 -1 2
v -0.9 -0.9 2.1
v -0.9 -0.9 2
v -0.9 -0.7 2.1
v -0.9 -0.7 2
v -0.9 -0.6 2.1
v -0.9 -0.6 2
v -0.9 -0.5 2.1
v -0.9 -0.5 2
v -0.9 -0.4 2.2
v -0.9 -0.4 1.9
v -0.8 -1.9 2.1
v -0.8 -1.9 2
v -0.8 -1.8 2.1
v -0.8 -1.8 2
v -0.8 -0.6 2.1
v -0.8 -0.6 2
v -0.8 -0.5 2.1
v -0.8 -0.5 2
v 0.8 -2 2.2
v 0.8 -2 1.9
v 0.8 -1.3 2.2
v 0.8 -1.3 1.9
v 0.8 -1.1 2.2
v 0.8 -1.1 1.9
v 0.8 -0.4 2.2
v 0.8 -0.4 1.9
v 0.9 -1.3 2.2
v 0.9 -1.3 1.9
v 0.9 -1.1 2.2
v 0.9 -1.1 1.9
v -1.3 -1.3 2.2
v -1.3 -1.1 2.2
v -1.2 -2 2.2
v -1.2 -1.3 2.2
v -1.2 -1.1 2.2
v -1.2 -0.4 2.2
v -0.9 -2 2.2
v -0.9 -0.4 2.2
v 0.5 -2 2.2
v 0.5 -0.4 2.2
v 0.8 -2 2.2
v 0.8 -1.3 2.2
v 0.8 -1.1 2.2
v 0.8 -0.4 2.2
v 0.9 -1.3 2.2
v 0.9 -1.1 2.2
v -0.9 -1.9 2.1
v -0.9 -1.8 2.1
v -0.9 -1.7 2.1
v -0.9 -1.6 2.1
v -0.9 -1.5 2.1
v -0.9 -1.3 2.1
v -0.9 -1.2 2.1
v -0.9 -1 2.1
v -0.9 -0.9 2.1
v -0.9 -0.7 2.1
v -0.9 -0.6 2.1
v -0.9 -0.5 2.1
v -0.8 -1.9 2.1
v -0.8 -1.8 2.1
v -0.8 -0.6 2.1
v -0.8 -0.5 2.1
v 0.4 -1.9 2.1
v 0.4 -1.8 2.1
v 0.4 -0.6 2.1
v 0.4 -0.5 2.1
v 0.5 -1.9 2.1
v 0.5 -1.8 2.1
v 0.5 -1.7 2.1
v 0.5 -1.6 2.1
v 0.5 -1.5 2.1
v 0.5 -1.3 2.1
v 0.5 -1.2 2.1
v 0.5 -1 2.1
v 0.5 -0.9 2.1
v 0.5 -0.7 2.1
v 0.5 -0.6 2.1
v 0.5 -0.5 2.1
v -0.9 -1.9 2
v -0.9 -1.8 2
v -0.9 -1.7 2
v -0.9 -1.6 2
v -0.9 -1.5 2
v -0.9 -1.3 2
v -0.9 -1.2 2
v -0.9 -1 2
v -0.9 -0.9 2
v -0.9 -0.7 2
v -0.9 -0.6 2
v -0.9 -0.5 2
v -0.8 -1.9 2
v -0.8 -1.8 2
v -0.8 -0.6 2
v -0.8 -0.5 2
v 0.4 -1.9 2
v 0.4 -1.8 2
v 0.4 -0.6 2
v 0.4 -0.5 2
v 0.5 -1.9 2
v 0.5 -1.8 2
v 0.5 -1.7 2
v 0.5 -1.6 2
v 0.5 -1.5 2
v 0.5 -1.3 2
v 0.5 -1.2 2
v 0.5 -1 2
v 0.5 -0.9 2
v 0.5 -0.7 2
v 0.5 -0.6 2
v 0.5 -0.5 2
v -1.3 -1.3 1.9
v -1.3 -1.1 1.9
v -1.2 -2 1.9
v -1.2 -1.3 1.9
v -1.2 -1.1 1.9
v -1.2 -0.4 1.9
v -0.9 -2 1.9
v -0.9 -0.4 1.9
v 0.5 -2 1.9
v 0.5 -0.4 1.9
v 0.8 -2 1.9
v 0.8 -1.3 1.9
v 0.8 -1.1 1.9
v 0.8 -0.4 1.9
v 0.9 -1.3 1.9
v 0.9 -1.1 1.9
v -1.2 -2 2.2
v -0.9 -2 2.2
v 0.5 -2 2.2
v 0.8 -2 2.2
v -1.2 -2 1.9
v -0.9 -2 1.9
v 0.5 -2 1.9
v 0.8 -2 1.9
v -0.9 -1.9 2.1
v -0.8 -1.9 2.1
v 0.4 -1.9 2.1
v 0.5 -1.9 2.1
v -0.9 -1.9 2
v -0.8 -1.9 2
v 0.4 -1.9 2
v 0.5 -1.9 2
v -0.8 -1.8 2.1
v 0.4 -1.8 2.1
v -0.8 -1.8 2
v 0.4 -1.8 2
v -1.3 -1.3 2.2
v -1.2 -1.3 2.2
v 0.8 -1.3 2.2
v 0.9 -1.3 2.2
v -1.3 -1.3 1.9
v -1.2 -1.3 1.9
v 0.8 -1.3 1.9
v 0.9 -1.3 1.9
v -1.3 -1.1 2.2
v -1.2 -1.1 2.2
v 0.8 -1.1 2.2
v 0.9 -1.1 2.2
v -1.3 -1.1 1.9
v -1.2 -1.1 1.9
v 0.8 -1.1 1.9
v 0.9 -1.1 1.9
v -0.8 -0.6 2.1
v 0.4 -0.6 2.1
v -0.8 -0.6 2
v 0.4 -0.6 2
v -0.9 -0.5 2.1
v -0.8 -0.5 2.1
v 0.4 -0.5 2.1
v 0.5 -0.5 2.1
v -0.9 -0.5 2
v -0.8 -0.5 2
v 0.4 -0.5 2
v 0.5 -0.5 2
v -1.2 -0.4 2.2
v -0.9 -0.4 2.2
v 0.5 -0.4 2.2
v 0.8 -0.4 2.2
v -1.2 -0.4 1.9
v -0.9 -0.4 1.9
v 0.5 -0.4 1.9
v 0.8 -0.4 1.9

# faces
f 3/2/1 2/2/1 1/2/1
f 4/2/1 2/2/1 3/2/1
f 7/2/1 6/2/1 5/2/1
f 8/2/1 6/2/1 7/2/1
f 11/2/1 10/2/1 9/2/1
f 12/2/1 10/2/1 11/2/1
f 15/1/1 14/1/1 13/1/1
f 16/1/1 14/1/1 15/1/1
f 19/1/1 18/1/1 17/1/1
f 20/1/1 18/1/1 19/1/1
f 23/2/1 22/2/1 21/2/1
f 24/2/1 22/2/1 23/2/1
f 25/2/1 23/2/1 21/2/1
f 26/2/1 22/2/1 24/2/1
f 27/2/1 25/2/1 21/2/1
f 28/2/1 22/2/1 26/2/1
f 29/2/1 27/2/1 21/2/1
f 30/2/1 22/2/1 28/2/1
f 31/2/1 29/2/1 21/2/1
f 32/2/1 22/2/1 30/2/1
f 33/2/1 31/2/1 21/2/1
f 34/2/1 22/2/1 32/2/1
f 35/2/1 33/2/1 21/2/1
f 36/2/1 22/2/1 34/2/1
f 37/2/1 35/2/1 21/2/1
f 38/2/1 22/2/1 36/2/1
f 39/2/1 37/2/1 21/2/1
f 40/2/1 22/2/1 38/2/1
f 41/2/1 39/2/1 21/2/1
f 42/2/1 22/2/1 40/2/1
f 43/2/1 41/2/1 21/2/1
f 44/2/1 22/2/1 42/2/1
f 45/2/1 43/2/1 21/2/1
f 46/2/1 22/2/1 44/2/1
f 47/2/1 45/2/1 21/2/1
f 47/2/1 46/2/1 45/2/1
f 48/2/1 22/2/1 46/2/1
f 48/2/1 46/2/1 47/2/1
f 49/2/2 50/2/2 51/2/2
f 51/2/2 50/2/2 52/2/2
f 49/2/2 51/2/2 53/2/2
f 52/2/2 50/2/2 54/2/2
f 49/2/2 53/2/2 55/2/2
f 54/2/2 50/2/2 56/2/2
f 49/2/2 55/2/2 57/2/2
f 56/2/2 50/2/2 58/2/2
f 49/2/2 57/2/2 59/2/2
f 58/2/2 50/2/2 60/2/2
f 49/2/2 59/2/2 61/2/2
f 60/2/2 50/2/2 62/2/2
f 49/2/2 61/2/2 63/2/2
f 62/2/2 50/2/2 64/2/2
f 49/2/2 63/2/2 65/2/2
f 64/2/2 50/2/2 66/2/2
f 49/2/2 65/2/2 67/2/2
f 66/2/2 50/2/2 68/2/2
f 49/2/2 67/2/2 69/2/2
f 68/2/2 50/2/2 70/2/2
f 49/2/2 69/2/2 71/2/2
f 70/2/2 50/2/2 72/2/2
f 49/2/2 71/2/2 73/2/2
f 72/2/2 50/2/2 74/2/2
f 49/2/2 73/2/2 75/2/2
f 73/2/2 74/2/2 75/2/2
f 74/2/2 50/2/2 76/2/2
f 75/2/2 74/2/2 76/2/2
f 77/1/2 78/1/2 79/1/2
f 79/1/2 78/1/2 80/1/2
f 81/1/2 82/1/2 83/1/2
f 83/1/2 82/1/2 84/1/2
f 85/2/2 86/2/2 87/2/2
f 87/2/2 86/2/2 88/2/2
f 89/2/2 90/2/2 91/2/2
f 91/2/2 90/2/2 92/2/2
f 93/2/2 94/2/2 95/2/2
f 95/2/2 94/2/2 96/2/2
f 100/2/3 98/2/3 97/2/3
f 101/2/3 98/2/3 100/2/3
f 103/2/3 100/2/3 99/2/3
f 103/2/3 102/2/3 101/2/3
f 103/2/3 101/2/3 100/2/3
f 104/2/3 102/2/3 103/2/3
f 107/2/3 106/2/3 105/2/3
f 108/2/3 106/2/3 107/2/3
f 109/2/3 106/2/3 108/2/3
f 110/2/3 106/2/3 109/2/3
f 111/2/3 109/2/3 108/2/3
f 112/2/3 109/2/3 111/2/3
f 125/1/3 114/1/3 113/1/3
f 126/2/3 115/2/3 114/2/3
f 126/1/3 114/1/3 125/1/3
f 127/1/3 124/1/3 123/1/3
f 127/2/3 123/2/3 122/2/3
f 128/1/3 124/1/3 127/1/3
f 130/2/3 115/2/3 126/2/3
f 131/2/3 127/2/3 122/2/3
f 133/1/3 130/1/3 129/1/3
f 134/2/3 115/2/3 130/2/3
f 134/1/3 130/1/3 133/1/3
f 135/1/3 116/1/3 115/1/3
f 135/2/3 115/2/3 134/2/3
f 136/2/3 117/2/3 116/2/3
f 136/1/3 116/1/3 135/1/3
f 137/1/3 118/1/3 117/1/3
f 137/2/3 117/2/3 136/2/3
f 138/2/3 119/2/3 118/2/3
f 138/1/3 118/1/3 137/1/3
f 139/1/3 120/1/3 119/1/3
f 139/2/3 119/2/3 138/2/3
f 140/2/3 121/2/3 120/2/3
f 140/1/3 120/1/3 139/1/3
f 141/1/3 122/1/3 121/1/3
f 141/2/3 121/2/3 140/2/3
f 142/2/3 131/2/3 122/2/3
f 142/1/3 122/1/3 141/1/3
f 143/1/3 132/1/3 131/1/3
f 143/2/3 131/2/3 142/2/3
f 144/1/3 132/1/3 143/1/3
f 145/1/4 146/1/4 157/1/4
f 146/2/4 147/2/4 158/2/4
f 157/1/4 146/1/4 158/1/4
f 155/1/4 156/1/4 159/1/4
f 154/2/4 155/2/4 159/2/4
f 159/1/4 156/1/4 160/1/4
f 158/2/4 147/2/4 162/2/4
f 154/2/4 159/2/4 163/2/4
f 161/1/4 162/1/4 165/1/4
f 162/2/4 147/2/4 166/2/4
f 165/1/4 162/1/4 166/1/4
f 147/1/4 148/1/4 167/1/4
f 166/2/4 147/2/4 167/2/4
f 148/2/4 149/2/4 168/2/4
f 167/1/4 148/1/4 168/1/4
f 149/1/4 150/1/4 169/1/4
f 168/2/4 149/2/4 169/2/4
f 150/2/4 151/2/4 170/2/4
f 169/1/4 150/1/4 170/1/4
f 151/1/4 152/1/4 171/1/4
f 170/2/4 151/2/4 171/2/4
f 152/2/4 153/2/4 172/2/4
f 171/1/4 152/1/4 172/1/4
f 153/1/4 154/1/4 173/1/4
f 172/2/4 153/2/4 173/2/4
f 154/2/4 163/2/4 174/2/4
f 173/1/4 154/1/4 174/1/4
f 163/1/4 164/1/4 175/1/4
f 174/2/4 163/2/4 175/2/4
f 175/1/4 164/1/4 176/1/4
f 177/2/4 178/2/4 180/2/4
f 180/2/4 178/2/4 181/2/4
f 179/2/4 180/2/4 183/2/4
f 181/2/4 182/2/4 183/2/4
f 180/2/4 181/2/4 183/2/4
f 183/2/4 182/2/4 184/2/4
f 185/2/4 186/2/4 187/2/4
f 187/2/4 186/2/4 188/2/4
f 188/2/4 186/2/4 189/2/4
f 189/2/4 186/2/4 190/2/4
f 188/2/4 189/2/4 191/2/4
f 191/2/4 189/2/4 192/2/4
f 197/2/5 194/2/5 193/2/5
f 198/2/5 194/2/5 197/2/5
f 199/2/5 196/2/5 195/2/5
f 200/2/5 196/2/5 199/2/5
f 205/1/5 202/1/5 201/1/5
f 206/1/5 202/1/5 205/1/5
f 207/1/5 204/1/5 203/1/5
f 208/1/5 204/1/5 207/1/5
f 211/2/5 210/2/5 209/2/5
f 212/2/5 210/2/5 211/2/5
f 217/2/5 214/2/5 213/2/5
f 218/2/5 214/2/5 217/2/5
f 219/2/5 216/2/5 215/2/5
f 220/2/5 216/2/5 219/2/5
f 221/2/6 222/2/6 225/2/6
f 225/2/6 222/2/6 226/2/6
f 223/2/6 224/2/6 227/2/6
f 227/2/6 224/2/6 228/2/6
f 229/2/6 230/2/6 231/2/6
f 231/2/6 230/2/6 232/2/6
f 233/1/6 234/1/6 237/1/6
f 237/1/6 234/1/6 238/1/6
f 235/1/6 236/1/6 239/1/6
f 239/1/6 236/1/6 240/1/6
f 241/2/6 242/2/6 245/2/6
f 245/2/6 242/2/6 246/2/6
f 243/2/6 244/2/6 247/2/6
f 247/2/6 244/2/6 248/2/6
